<svg width="171" height="27" viewBox="0 0 171 27" fill="none" xmlns="http://www.w3.org/2000/svg">
<path d="M6.516 4.084C6.516 4.78 6.276 5.36 5.796 5.824C5.324 6.28 4.6 6.508 3.624 6.508H2.016V10H0.924V1.636H3.624C4.568 1.636 5.284 1.864 5.772 2.32C6.268 2.776 6.516 3.364 6.516 4.084ZM3.624 5.608C4.232 5.608 4.68 5.476 4.968 5.212C5.256 4.948 5.4 4.572 5.4 4.084C5.4 3.052 4.808 2.536 3.624 2.536H2.016V5.608H3.624ZM8.96522 4.492C9.15722 4.116 9.42922 3.824 9.78122 3.616C10.1412 3.408 10.5772 3.304 11.0892 3.304V4.432H10.8012C9.57722 4.432 8.96522 5.096 8.96522 6.424V10H7.87322V3.424H8.96522V4.492ZM12.9138 2.356C12.7058 2.356 12.5298 2.284 12.3858 2.14C12.2418 1.996 12.1698 1.82 12.1698 1.612C12.1698 1.404 12.2418 1.228 12.3858 1.084C12.5298 0.94 12.7058 0.868 12.9138 0.868C13.1138 0.868 13.2818 0.94 13.4178 1.084C13.5618 1.228 13.6338 1.404 13.6338 1.612C13.6338 1.82 13.5618 1.996 13.4178 2.14C13.2818 2.284 13.1138 2.356 12.9138 2.356ZM13.4418 3.424V10H12.3498V3.424H13.4418ZM17.7509 8.992L19.7909 3.424H20.9549L18.3749 10H17.1029L14.5229 3.424H15.6989L17.7509 8.992ZM21.6215 6.688C21.6215 6.016 21.7575 5.428 22.0295 4.924C22.3015 4.412 22.6735 4.016 23.1455 3.736C23.6255 3.456 24.1575 3.316 24.7415 3.316C25.3175 3.316 25.8175 3.44 26.2415 3.688C26.6655 3.936 26.9815 4.248 27.1895 4.624V3.424H28.2935V10H27.1895V8.776C26.9735 9.16 26.6495 9.48 26.2175 9.736C25.7935 9.984 25.2975 10.108 24.7295 10.108C24.1455 10.108 23.6175 9.964 23.1455 9.676C22.6735 9.388 22.3015 8.984 22.0295 8.464C21.7575 7.944 21.6215 7.352 21.6215 6.688ZM27.1895 6.7C27.1895 6.204 27.0895 5.772 26.8895 5.404C26.6895 5.036 26.4175 4.756 26.0735 4.564C25.7375 4.364 25.3655 4.264 24.9575 4.264C24.5495 4.264 24.1775 4.36 23.8415 4.552C23.5055 4.744 23.2375 5.024 23.0375 5.392C22.8375 5.76 22.7375 6.192 22.7375 6.688C22.7375 7.192 22.8375 7.632 23.0375 8.008C23.2375 8.376 23.5055 8.66 23.8415 8.86C24.1775 9.052 24.5495 9.148 24.9575 9.148C25.3655 9.148 25.7375 9.052 26.0735 8.86C26.4175 8.66 26.6895 8.376 26.8895 8.008C27.0895 7.632 27.1895 7.196 27.1895 6.7ZM29.7308 6.7C29.7308 6.02 29.8668 5.428 30.1388 4.924C30.4108 4.412 30.7868 4.016 31.2668 3.736C31.7548 3.456 32.3108 3.316 32.9348 3.316C33.7428 3.316 34.4068 3.512 34.9268 3.904C35.4548 4.296 35.8028 4.84 35.9708 5.536H34.7948C34.6828 5.136 34.4628 4.82 34.1348 4.588C33.8148 4.356 33.4148 4.24 32.9348 4.24C32.3108 4.24 31.8068 4.456 31.4228 4.888C31.0388 5.312 30.8468 5.916 30.8468 6.7C30.8468 7.492 31.0388 8.104 31.4228 8.536C31.8068 8.968 32.3108 9.184 32.9348 9.184C33.4148 9.184 33.8148 9.072 34.1348 8.848C34.4548 8.624 34.6748 8.304 34.7948 7.888H35.9708C35.7948 8.56 35.4428 9.1 34.9148 9.508C34.3868 9.908 33.7268 10.108 32.9348 10.108C32.3108 10.108 31.7548 9.968 31.2668 9.688C30.7868 9.408 30.4108 9.012 30.1388 8.5C29.8668 7.988 29.7308 7.388 29.7308 6.7ZM43.0919 3.424L39.1319 13.096H38.0039L39.2999 9.928L36.6479 3.424H37.8599L39.9239 8.752L41.9639 3.424H43.0919ZM47.9528 2.356C47.7448 2.356 47.5688 2.284 47.4248 2.14C47.2808 1.996 47.2088 1.82 47.2088 1.612C47.2088 1.404 47.2808 1.228 47.4248 1.084C47.5688 0.94 47.7448 0.868 47.9528 0.868C48.1528 0.868 48.3208 0.94 48.4568 1.084C48.6008 1.228 48.6728 1.404 48.6728 1.612C48.6728 1.82 48.6008 1.996 48.4568 2.14C48.3208 2.284 48.1528 2.356 47.9528 2.356ZM48.4808 3.424V10H47.3888V3.424H48.4808ZM52.67 10.108C52.166 10.108 51.714 10.024 51.314 9.856C50.914 9.68 50.598 9.44 50.366 9.136C50.134 8.824 50.006 8.468 49.982 8.068H51.11C51.142 8.396 51.294 8.664 51.566 8.872C51.846 9.08 52.21 9.184 52.658 9.184C53.074 9.184 53.402 9.092 53.642 8.908C53.882 8.724 54.002 8.492 54.002 8.212C54.002 7.924 53.874 7.712 53.618 7.576C53.362 7.432 52.966 7.292 52.43 7.156C51.942 7.028 51.542 6.9 51.23 6.772C50.926 6.636 50.662 6.44 50.438 6.184C50.222 5.92 50.114 5.576 50.114 5.152C50.114 4.816 50.214 4.508 50.414 4.228C50.614 3.948 50.898 3.728 51.266 3.568C51.634 3.4 52.054 3.316 52.526 3.316C53.254 3.316 53.842 3.5 54.29 3.868C54.738 4.236 54.978 4.74 55.01 5.38H53.918C53.894 5.036 53.754 4.76 53.498 4.552C53.25 4.344 52.914 4.24 52.49 4.24C52.098 4.24 51.786 4.324 51.554 4.492C51.322 4.66 51.206 4.88 51.206 5.152C51.206 5.368 51.274 5.548 51.41 5.692C51.554 5.828 51.73 5.94 51.938 6.028C52.154 6.108 52.45 6.2 52.826 6.304C53.298 6.432 53.682 6.56 53.978 6.688C54.274 6.808 54.526 6.992 54.734 7.24C54.95 7.488 55.062 7.812 55.07 8.212C55.07 8.572 54.97 8.896 54.77 9.184C54.57 9.472 54.286 9.7 53.918 9.868C53.558 10.028 53.142 10.108 52.67 10.108ZM61.1427 4.324V8.2C61.1427 8.52 61.2107 8.748 61.3467 8.884C61.4827 9.012 61.7187 9.076 62.0547 9.076H62.8587V10H61.8747C61.2667 10 60.8107 9.86 60.5067 9.58C60.2027 9.3 60.0507 8.84 60.0507 8.2V4.324H59.1987V3.424H60.0507V1.768H61.1427V3.424H62.8587V4.324H61.1427ZM67.4458 3.304C67.9418 3.304 68.3898 3.412 68.7898 3.628C69.1898 3.836 69.5018 4.152 69.7258 4.576C69.9578 5 70.0738 5.516 70.0738 6.124V10H68.9938V6.28C68.9938 5.624 68.8298 5.124 68.5018 4.78C68.1738 4.428 67.7258 4.252 67.1578 4.252C66.5818 4.252 66.1218 4.432 65.7778 4.792C65.4418 5.152 65.2738 5.676 65.2738 6.364V10H64.1818V1.12H65.2738V4.36C65.4898 4.024 65.7858 3.764 66.1618 3.58C66.5458 3.396 66.9738 3.304 67.4458 3.304ZM77.8576 6.46C77.8576 6.668 77.8456 6.888 77.8216 7.12H72.5656C72.6056 7.768 72.8256 8.276 73.2256 8.644C73.6336 9.004 74.1256 9.184 74.7016 9.184C75.1736 9.184 75.5656 9.076 75.8776 8.86C76.1976 8.636 76.4216 8.34 76.5496 7.972H77.7256C77.5496 8.604 77.1976 9.12 76.6696 9.52C76.1416 9.912 75.4856 10.108 74.7016 10.108C74.0776 10.108 73.5176 9.968 73.0216 9.688C72.5336 9.408 72.1496 9.012 71.8696 8.5C71.5896 7.98 71.4496 7.38 71.4496 6.7C71.4496 6.02 71.5856 5.424 71.8576 4.912C72.1296 4.4 72.5096 4.008 72.9976 3.736C73.4936 3.456 74.0616 3.316 74.7016 3.316C75.3256 3.316 75.8776 3.452 76.3576 3.724C76.8376 3.996 77.2056 4.372 77.4616 4.852C77.7256 5.324 77.8576 5.86 77.8576 6.46ZM76.7296 6.232C76.7296 5.816 76.6376 5.46 76.4536 5.164C76.2696 4.86 76.0176 4.632 75.6976 4.48C75.3856 4.32 75.0376 4.24 74.6536 4.24C74.1016 4.24 73.6296 4.416 73.2376 4.768C72.8536 5.12 72.6336 5.608 72.5776 6.232H76.7296ZM85.7622 3.304C86.2582 3.304 86.7062 3.412 87.1062 3.628C87.5062 3.836 87.8182 4.152 88.0422 4.576C88.2742 5 88.3902 5.516 88.3902 6.124V10H87.3102V6.28C87.3102 5.624 87.1462 5.124 86.8182 4.78C86.4902 4.428 86.0422 4.252 85.4742 4.252C84.8982 4.252 84.4382 4.432 84.0942 4.792C83.7582 5.152 83.5902 5.676 83.5902 6.364V10H82.4982V1.12H83.5902V4.36C83.8062 4.024 84.1022 3.764 84.4782 3.58C84.8622 3.396 85.2902 3.304 85.7622 3.304ZM90.738 2.356C90.53 2.356 90.354 2.284 90.21 2.14C90.066 1.996 89.994 1.82 89.994 1.612C89.994 1.404 90.066 1.228 90.21 1.084C90.354 0.94 90.53 0.868 90.738 0.868C90.938 0.868 91.106 0.94 91.242 1.084C91.386 1.228 91.458 1.404 91.458 1.612C91.458 1.82 91.386 1.996 91.242 2.14C91.106 2.284 90.938 2.356 90.738 2.356ZM91.266 3.424V10H90.174V3.424H91.266ZM95.8391 3.316C96.4071 3.316 96.9031 3.44 97.3271 3.688C97.7591 3.936 98.0791 4.248 98.2871 4.624V3.424H99.3911V10.144C99.3911 10.744 99.2631 11.276 99.0071 11.74C98.7511 12.212 98.3831 12.58 97.9031 12.844C97.4311 13.108 96.8791 13.24 96.2471 13.24C95.3831 13.24 94.6631 13.036 94.0871 12.628C93.5111 12.22 93.1711 11.664 93.0671 10.96H94.1471C94.2671 11.36 94.5151 11.68 94.8911 11.92C95.2671 12.168 95.7191 12.292 96.2471 12.292C96.8471 12.292 97.3351 12.104 97.7111 11.728C98.0951 11.352 98.2871 10.824 98.2871 10.144V8.764C98.0711 9.148 97.7511 9.468 97.3271 9.724C96.9031 9.98 96.4071 10.108 95.8391 10.108C95.2551 10.108 94.7231 9.964 94.2431 9.676C93.7711 9.388 93.3991 8.984 93.1271 8.464C92.8551 7.944 92.7191 7.352 92.7191 6.688C92.7191 6.016 92.8551 5.428 93.1271 4.924C93.3991 4.412 93.7711 4.016 94.2431 3.736C94.7231 3.456 95.2551 3.316 95.8391 3.316ZM98.2871 6.7C98.2871 6.204 98.1871 5.772 97.9871 5.404C97.7871 5.036 97.5151 4.756 97.1711 4.564C96.8351 4.364 96.4631 4.264 96.0551 4.264C95.6471 4.264 95.2751 4.36 94.9391 4.552C94.6031 4.744 94.3351 5.024 94.1351 5.392C93.9351 5.76 93.8351 6.192 93.8351 6.688C93.8351 7.192 93.9351 7.632 94.1351 8.008C94.3351 8.376 94.6031 8.66 94.9391 8.86C95.2751 9.052 95.6471 9.148 96.0551 9.148C96.4631 9.148 96.8351 9.052 97.1711 8.86C97.5151 8.66 97.7871 8.376 97.9871 8.008C98.1871 7.632 98.2871 7.196 98.2871 6.7ZM104.501 3.304C104.997 3.304 105.445 3.412 105.845 3.628C106.245 3.836 106.557 4.152 106.781 4.576C107.013 5 107.129 5.516 107.129 6.124V10H106.049V6.28C106.049 5.624 105.885 5.124 105.557 4.78C105.229 4.428 104.781 4.252 104.213 4.252C103.637 4.252 103.177 4.432 102.833 4.792C102.497 5.152 102.329 5.676 102.329 6.364V10H101.237V1.12H102.329V4.36C102.545 4.024 102.841 3.764 103.217 3.58C103.601 3.396 104.029 3.304 104.501 3.304ZM114.912 6.46C114.912 6.668 114.9 6.888 114.876 7.12H109.62C109.66 7.768 109.88 8.276 110.28 8.644C110.688 9.004 111.18 9.184 111.756 9.184C112.228 9.184 112.62 9.076 112.932 8.86C113.252 8.636 113.476 8.34 113.604 7.972H114.78C114.604 8.604 114.252 9.12 113.724 9.52C113.196 9.912 112.54 10.108 111.756 10.108C111.132 10.108 110.572 9.968 110.076 9.688C109.588 9.408 109.204 9.012 108.924 8.5C108.644 7.98 108.504 7.38 108.504 6.7C108.504 6.02 108.64 5.424 108.912 4.912C109.184 4.4 109.564 4.008 110.052 3.736C110.548 3.456 111.116 3.316 111.756 3.316C112.38 3.316 112.932 3.452 113.412 3.724C113.892 3.996 114.26 4.372 114.516 4.852C114.78 5.324 114.912 5.86 114.912 6.46ZM113.784 6.232C113.784 5.816 113.692 5.46 113.508 5.164C113.324 4.86 113.072 4.632 112.752 4.48C112.44 4.32 112.092 4.24 111.708 4.24C111.156 4.24 110.684 4.416 110.292 4.768C109.908 5.12 109.688 5.608 109.632 6.232H113.784ZM118.682 10.108C118.178 10.108 117.726 10.024 117.326 9.856C116.926 9.68 116.61 9.44 116.378 9.136C116.146 8.824 116.018 8.468 115.994 8.068H117.122C117.154 8.396 117.306 8.664 117.578 8.872C117.858 9.08 118.222 9.184 118.67 9.184C119.086 9.184 119.414 9.092 119.654 8.908C119.894 8.724 120.014 8.492 120.014 8.212C120.014 7.924 119.886 7.712 119.63 7.576C119.374 7.432 118.978 7.292 118.442 7.156C117.954 7.028 117.554 6.9 117.242 6.772C116.938 6.636 116.674 6.44 116.45 6.184C116.234 5.92 116.126 5.576 116.126 5.152C116.126 4.816 116.226 4.508 116.426 4.228C116.626 3.948 116.91 3.728 117.278 3.568C117.646 3.4 118.066 3.316 118.538 3.316C119.266 3.316 119.854 3.5 120.302 3.868C120.75 4.236 120.99 4.74 121.022 5.38H119.93C119.906 5.036 119.766 4.76 119.51 4.552C119.262 4.344 118.926 4.24 118.502 4.24C118.11 4.24 117.798 4.324 117.566 4.492C117.334 4.66 117.218 4.88 117.218 5.152C117.218 5.368 117.286 5.548 117.422 5.692C117.566 5.828 117.742 5.94 117.95 6.028C118.166 6.108 118.462 6.2 118.838 6.304C119.31 6.432 119.694 6.56 119.99 6.688C120.286 6.808 120.538 6.992 120.746 7.24C120.962 7.488 121.074 7.812 121.082 8.212C121.082 8.572 120.982 8.896 120.782 9.184C120.582 9.472 120.298 9.7 119.93 9.868C119.57 10.028 119.154 10.108 118.682 10.108ZM123.955 4.324V8.2C123.955 8.52 124.023 8.748 124.159 8.884C124.295 9.012 124.531 9.076 124.867 9.076H125.671V10H124.687C124.079 10 123.623 9.86 123.319 9.58C123.015 9.3 122.863 8.84 122.863 8.2V4.324H122.011V3.424H122.863V1.768H123.955V3.424H125.671V4.324H123.955ZM131.286 4.636C131.502 4.26 131.822 3.948 132.246 3.7C132.678 3.444 133.178 3.316 133.746 3.316C134.33 3.316 134.858 3.456 135.33 3.736C135.81 4.016 136.186 4.412 136.458 4.924C136.73 5.428 136.866 6.016 136.866 6.688C136.866 7.352 136.73 7.944 136.458 8.464C136.186 8.984 135.81 9.388 135.33 9.676C134.858 9.964 134.33 10.108 133.746 10.108C133.186 10.108 132.69 9.984 132.258 9.736C131.834 9.48 131.51 9.164 131.286 8.788V13.12H130.194V3.424H131.286V4.636ZM135.75 6.688C135.75 6.192 135.65 5.76 135.45 5.392C135.25 5.024 134.978 4.744 134.634 4.552C134.298 4.36 133.926 4.264 133.518 4.264C133.118 4.264 132.746 4.364 132.402 4.564C132.066 4.756 131.794 5.04 131.586 5.416C131.386 5.784 131.286 6.212 131.286 6.7C131.286 7.196 131.386 7.632 131.586 8.008C131.794 8.376 132.066 8.66 132.402 8.86C132.746 9.052 133.118 9.148 133.518 9.148C133.926 9.148 134.298 9.052 134.634 8.86C134.978 8.66 135.25 8.376 135.45 8.008C135.65 7.632 135.75 7.192 135.75 6.688ZM139.395 4.492C139.587 4.116 139.859 3.824 140.211 3.616C140.571 3.408 141.007 3.304 141.519 3.304V4.432H141.231C140.007 4.432 139.395 5.096 139.395 6.424V10H138.303V3.424H139.395V4.492ZM143.343 2.356C143.135 2.356 142.959 2.284 142.815 2.14C142.671 1.996 142.599 1.82 142.599 1.612C142.599 1.404 142.671 1.228 142.815 1.084C142.959 0.94 143.135 0.868 143.343 0.868C143.543 0.868 143.711 0.94 143.847 1.084C143.991 1.228 144.063 1.404 144.063 1.612C144.063 1.82 143.991 1.996 143.847 2.14C143.711 2.284 143.543 2.356 143.343 2.356ZM143.871 3.424V10H142.779V3.424H143.871ZM148.601 10.108C147.985 10.108 147.425 9.968 146.921 9.688C146.425 9.408 146.033 9.012 145.745 8.5C145.465 7.98 145.325 7.38 145.325 6.7C145.325 6.028 145.469 5.436 145.757 4.924C146.053 4.404 146.453 4.008 146.957 3.736C147.461 3.456 148.025 3.316 148.649 3.316C149.273 3.316 149.837 3.456 150.341 3.736C150.845 4.008 151.241 4.4 151.529 4.912C151.825 5.424 151.973 6.02 151.973 6.7C151.973 7.38 151.821 7.98 151.517 8.5C151.221 9.012 150.817 9.408 150.305 9.688C149.793 9.968 149.225 10.108 148.601 10.108ZM148.601 9.148C148.993 9.148 149.361 9.056 149.705 8.872C150.049 8.688 150.325 8.412 150.533 8.044C150.749 7.676 150.857 7.228 150.857 6.7C150.857 6.172 150.753 5.724 150.545 5.356C150.337 4.988 150.065 4.716 149.729 4.54C149.393 4.356 149.029 4.264 148.637 4.264C148.237 4.264 147.869 4.356 147.533 4.54C147.205 4.716 146.941 4.988 146.741 5.356C146.541 5.724 146.441 6.172 146.441 6.7C146.441 7.236 146.537 7.688 146.729 8.056C146.929 8.424 147.193 8.7 147.521 8.884C147.849 9.06 148.209 9.148 148.601 9.148ZM154.5 4.492C154.692 4.116 154.964 3.824 155.316 3.616C155.676 3.408 156.112 3.304 156.624 3.304V4.432H156.336C155.112 4.432 154.5 5.096 154.5 6.424V10H153.408V3.424H154.5V4.492ZM158.449 2.356C158.241 2.356 158.065 2.284 157.921 2.14C157.777 1.996 157.705 1.82 157.705 1.612C157.705 1.404 157.777 1.228 157.921 1.084C158.065 0.94 158.241 0.868 158.449 0.868C158.649 0.868 158.817 0.94 158.953 1.084C159.097 1.228 159.169 1.404 159.169 1.612C159.169 1.82 159.097 1.996 158.953 2.14C158.817 2.284 158.649 2.356 158.449 2.356ZM158.977 3.424V10H157.885V3.424H158.977ZM162.17 4.324V8.2C162.17 8.52 162.238 8.748 162.374 8.884C162.51 9.012 162.746 9.076 163.082 9.076H163.886V10H162.902C162.294 10 161.838 9.86 161.534 9.58C161.23 9.3 161.078 8.84 161.078 8.2V4.324H160.226V3.424H161.078V1.768H162.17V3.424H163.886V4.324H162.17ZM170.873 3.424L166.913 13.096H165.785L167.081 9.928L164.429 3.424H165.641L167.705 8.752L169.745 3.424H170.873ZM3.792 26.108C3.176 26.108 2.616 25.968 2.112 25.688C1.616 25.408 1.224 25.012 0.936 24.5C0.656 23.98 0.516 23.38 0.516 22.7C0.516 22.028 0.66 21.436 0.948 20.924C1.244 20.404 1.644 20.008 2.148 19.736C2.652 19.456 3.216 19.316 3.84 19.316C4.464 19.316 5.028 19.456 5.532 19.736C6.036 20.008 6.432 20.4 6.72 20.912C7.016 21.424 7.164 22.02 7.164 22.7C7.164 23.38 7.012 23.98 6.708 24.5C6.412 25.012 6.008 25.408 5.496 25.688C4.984 25.968 4.416 26.108 3.792 26.108ZM3.792 25.148C4.184 25.148 4.552 25.056 4.896 24.872C5.24 24.688 5.516 24.412 5.724 24.044C5.94 23.676 6.048 23.228 6.048 22.7C6.048 22.172 5.944 21.724 5.736 21.356C5.528 20.988 5.256 20.716 4.92 20.54C4.584 20.356 4.22 20.264 3.828 20.264C3.428 20.264 3.06 20.356 2.724 20.54C2.396 20.716 2.132 20.988 1.932 21.356C1.732 21.724 1.632 22.172 1.632 22.7C1.632 23.236 1.728 23.688 1.92 24.056C2.12 24.424 2.384 24.7 2.712 24.884C3.04 25.06 3.4 25.148 3.792 25.148ZM11.2758 20.324H9.89578V26H8.80378V20.324H7.95178V19.424H8.80378V18.956C8.80378 18.22 8.99178 17.684 9.36778 17.348C9.75178 17.004 10.3638 16.832 11.2038 16.832V17.744C10.7238 17.744 10.3838 17.84 10.1838 18.032C9.99178 18.216 9.89578 18.524 9.89578 18.956V19.424H11.2758V20.324ZM18.6162 26.108C18.0002 26.108 17.4402 25.968 16.9362 25.688C16.4402 25.408 16.0482 25.012 15.7602 24.5C15.4802 23.98 15.3402 23.38 15.3402 22.7C15.3402 22.028 15.4842 21.436 15.7722 20.924C16.0682 20.404 16.4682 20.008 16.9722 19.736C17.4762 19.456 18.0402 19.316 18.6642 19.316C19.2882 19.316 19.8522 19.456 20.3562 19.736C20.8602 20.008 21.2562 20.4 21.5442 20.912C21.8402 21.424 21.9882 22.02 21.9882 22.7C21.9882 23.38 21.8362 23.98 21.5322 24.5C21.2362 25.012 20.8322 25.408 20.3202 25.688C19.8082 25.968 19.2402 26.108 18.6162 26.108ZM18.6162 25.148C19.0082 25.148 19.3762 25.056 19.7202 24.872C20.0642 24.688 20.3402 24.412 20.5482 24.044C20.7642 23.676 20.8722 23.228 20.8722 22.7C20.8722 22.172 20.7682 21.724 20.5602 21.356C20.3522 20.988 20.0802 20.716 19.7442 20.54C19.4082 20.356 19.0442 20.264 18.6522 20.264C18.2522 20.264 17.8842 20.356 17.5482 20.54C17.2202 20.716 16.9562 20.988 16.7562 21.356C16.5562 21.724 16.4562 22.172 16.4562 22.7C16.4562 23.236 16.5522 23.688 16.7442 24.056C16.9442 24.424 17.2082 24.7 17.5362 24.884C17.8642 25.06 18.2242 25.148 18.6162 25.148ZM29.256 19.424V26H28.164V25.028C27.956 25.364 27.664 25.628 27.288 25.82C26.92 26.004 26.512 26.096 26.064 26.096C25.552 26.096 25.092 25.992 24.684 25.784C24.276 25.568 23.952 25.248 23.712 24.824C23.48 24.4 23.364 23.884 23.364 23.276V19.424H24.444V23.132C24.444 23.78 24.608 24.28 24.936 24.632C25.264 24.976 25.712 25.148 26.28 25.148C26.864 25.148 27.324 24.968 27.66 24.608C27.996 24.248 28.164 23.724 28.164 23.036V19.424H29.256ZM32.1918 20.492C32.3838 20.116 32.6558 19.824 33.0078 19.616C33.3678 19.408 33.8038 19.304 34.3158 19.304V20.432H34.0278C32.8038 20.432 32.1918 21.096 32.1918 22.424V26H31.0998V19.424H32.1918V20.492ZM38.3676 22.688C38.3676 22.016 38.5036 21.428 38.7756 20.924C39.0476 20.412 39.4196 20.016 39.8916 19.736C40.3716 19.456 40.9076 19.316 41.4996 19.316C42.0116 19.316 42.4876 19.436 42.9276 19.676C43.3676 19.908 43.7036 20.216 43.9356 20.6V17.12H45.0396V26H43.9356V24.764C43.7196 25.156 43.3996 25.48 42.9756 25.736C42.5516 25.984 42.0556 26.108 41.4876 26.108C40.9036 26.108 40.3716 25.964 39.8916 25.676C39.4196 25.388 39.0476 24.984 38.7756 24.464C38.5036 23.944 38.3676 23.352 38.3676 22.688ZM43.9356 22.7C43.9356 22.204 43.8356 21.772 43.6356 21.404C43.4356 21.036 43.1636 20.756 42.8196 20.564C42.4836 20.364 42.1116 20.264 41.7036 20.264C41.2956 20.264 40.9236 20.36 40.5876 20.552C40.2516 20.744 39.9836 21.024 39.7836 21.392C39.5836 21.76 39.4836 22.192 39.4836 22.688C39.4836 23.192 39.5836 23.632 39.7836 24.008C39.9836 24.376 40.2516 24.66 40.5876 24.86C40.9236 25.052 41.2956 25.148 41.7036 25.148C42.1116 25.148 42.4836 25.052 42.8196 24.86C43.1636 24.66 43.4356 24.376 43.6356 24.008C43.8356 23.632 43.9356 23.196 43.9356 22.7ZM52.8849 22.46C52.8849 22.668 52.8729 22.888 52.8489 23.12H47.5929C47.6329 23.768 47.8529 24.276 48.2529 24.644C48.6609 25.004 49.1529 25.184 49.7289 25.184C50.2009 25.184 50.5929 25.076 50.9049 24.86C51.2249 24.636 51.4489 24.34 51.5769 23.972H52.7529C52.5769 24.604 52.2249 25.12 51.6969 25.52C51.1689 25.912 50.5129 26.108 49.7289 26.108C49.1049 26.108 48.5449 25.968 48.0489 25.688C47.5609 25.408 47.1769 25.012 46.8969 24.5C46.6169 23.98 46.4769 23.38 46.4769 22.7C46.4769 22.02 46.6129 21.424 46.8849 20.912C47.1569 20.4 47.5369 20.008 48.0249 19.736C48.5209 19.456 49.0889 19.316 49.7289 19.316C50.3529 19.316 50.9049 19.452 51.3849 19.724C51.8649 19.996 52.2329 20.372 52.4889 20.852C52.7529 21.324 52.8849 21.86 52.8849 22.46ZM51.7569 22.232C51.7569 21.816 51.6649 21.46 51.4809 21.164C51.2969 20.86 51.0449 20.632 50.7249 20.48C50.4129 20.32 50.0649 20.24 49.6809 20.24C49.1289 20.24 48.6569 20.416 48.2649 20.768C47.8809 21.12 47.6609 21.608 47.6049 22.232H51.7569ZM53.9183 22.688C53.9183 22.016 54.0543 21.428 54.3263 20.924C54.5983 20.412 54.9703 20.016 55.4423 19.736C55.9223 19.456 56.4583 19.316 57.0503 19.316C57.5623 19.316 58.0383 19.436 58.4783 19.676C58.9183 19.908 59.2543 20.216 59.4863 20.6V17.12H60.5903V26H59.4863V24.764C59.2703 25.156 58.9503 25.48 58.5263 25.736C58.1023 25.984 57.6063 26.108 57.0383 26.108C56.4543 26.108 55.9223 25.964 55.4423 25.676C54.9703 25.388 54.5983 24.984 54.3263 24.464C54.0543 23.944 53.9183 23.352 53.9183 22.688ZM59.4863 22.7C59.4863 22.204 59.3863 21.772 59.1863 21.404C58.9863 21.036 58.7143 20.756 58.3703 20.564C58.0343 20.364 57.6623 20.264 57.2543 20.264C56.8463 20.264 56.4743 20.36 56.1383 20.552C55.8023 20.744 55.5343 21.024 55.3343 21.392C55.1343 21.76 55.0343 22.192 55.0343 22.688C55.0343 23.192 55.1343 23.632 55.3343 24.008C55.5343 24.376 55.8023 24.66 56.1383 24.86C56.4743 25.052 56.8463 25.148 57.2543 25.148C57.6623 25.148 58.0343 25.052 58.3703 24.86C58.7143 24.66 58.9863 24.376 59.1863 24.008C59.3863 23.632 59.4863 23.196 59.4863 22.7ZM62.9997 18.356C62.7917 18.356 62.6157 18.284 62.4717 18.14C62.3277 17.996 62.2557 17.82 62.2557 17.612C62.2557 17.404 62.3277 17.228 62.4717 17.084C62.6157 16.94 62.7917 16.868 62.9997 16.868C63.1997 16.868 63.3677 16.94 63.5037 17.084C63.6477 17.228 63.7197 17.404 63.7197 17.612C63.7197 17.82 63.6477 17.996 63.5037 18.14C63.3677 18.284 63.1997 18.356 62.9997 18.356ZM63.5277 19.424V26H62.4357V19.424H63.5277ZM64.9808 22.7C64.9808 22.02 65.1168 21.428 65.3888 20.924C65.6608 20.412 66.0368 20.016 66.5168 19.736C67.0048 19.456 67.5608 19.316 68.1848 19.316C68.9928 19.316 69.6568 19.512 70.1768 19.904C70.7048 20.296 71.0528 20.84 71.2208 21.536H70.0448C69.9328 21.136 69.7128 20.82 69.3848 20.588C69.0648 20.356 68.6648 20.24 68.1848 20.24C67.5608 20.24 67.0568 20.456 66.6728 20.888C66.2888 21.312 66.0968 21.916 66.0968 22.7C66.0968 23.492 66.2888 24.104 66.6728 24.536C67.0568 24.968 67.5608 25.184 68.1848 25.184C68.6648 25.184 69.0648 25.072 69.3848 24.848C69.7048 24.624 69.9248 24.304 70.0448 23.888H71.2208C71.0448 24.56 70.6928 25.1 70.1648 25.508C69.6368 25.908 68.9768 26.108 68.1848 26.108C67.5608 26.108 67.0048 25.968 66.5168 25.688C66.0368 25.408 65.6608 25.012 65.3888 24.5C65.1168 23.988 64.9808 23.388 64.9808 22.7ZM72.2699 22.688C72.2699 22.016 72.4059 21.428 72.6779 20.924C72.9499 20.412 73.3219 20.016 73.7939 19.736C74.2739 19.456 74.8059 19.316 75.3899 19.316C75.9659 19.316 76.4659 19.44 76.8899 19.688C77.3139 19.936 77.6299 20.248 77.8379 20.624V19.424H78.9419V26H77.8379V24.776C77.6219 25.16 77.2979 25.48 76.8659 25.736C76.4419 25.984 75.9459 26.108 75.3779 26.108C74.7939 26.108 74.2659 25.964 73.7939 25.676C73.3219 25.388 72.9499 24.984 72.6779 24.464C72.4059 23.944 72.2699 23.352 72.2699 22.688ZM77.8379 22.7C77.8379 22.204 77.7379 21.772 77.5379 21.404C77.3379 21.036 77.0659 20.756 76.7219 20.564C76.3859 20.364 76.0139 20.264 75.6059 20.264C75.1979 20.264 74.8259 20.36 74.4899 20.552C74.1539 20.744 73.8859 21.024 73.6859 21.392C73.4859 21.76 73.3859 22.192 73.3859 22.688C73.3859 23.192 73.4859 23.632 73.6859 24.008C73.8859 24.376 74.1539 24.66 74.4899 24.86C74.8259 25.052 75.1979 25.148 75.6059 25.148C76.0139 25.148 76.3859 25.052 76.7219 24.86C77.0659 24.66 77.3379 24.376 77.5379 24.008C77.7379 23.632 77.8379 23.196 77.8379 22.7ZM82.1193 20.324V24.2C82.1193 24.52 82.1873 24.748 82.3233 24.884C82.4593 25.012 82.6953 25.076 83.0313 25.076H83.8353V26H82.8513C82.2433 26 81.7873 25.86 81.4833 25.58C81.1793 25.3 81.0273 24.84 81.0273 24.2V20.324H80.1753V19.424H81.0273V17.768H82.1193V19.424H83.8353V20.324H82.1193ZM91.1584 22.46C91.1584 22.668 91.1464 22.888 91.1224 23.12H85.8664C85.9064 23.768 86.1264 24.276 86.5264 24.644C86.9344 25.004 87.4264 25.184 88.0024 25.184C88.4744 25.184 88.8664 25.076 89.1784 24.86C89.4984 24.636 89.7224 24.34 89.8504 23.972H91.0264C90.8504 24.604 90.4984 25.12 89.9704 25.52C89.4424 25.912 88.7864 26.108 88.0024 26.108C87.3784 26.108 86.8184 25.968 86.3224 25.688C85.8344 25.408 85.4504 25.012 85.1704 24.5C84.8904 23.98 84.7504 23.38 84.7504 22.7C84.7504 22.02 84.8864 21.424 85.1584 20.912C85.4304 20.4 85.8104 20.008 86.2984 19.736C86.7944 19.456 87.3624 19.316 88.0024 19.316C88.6264 19.316 89.1784 19.452 89.6584 19.724C90.1384 19.996 90.5064 20.372 90.7624 20.852C91.0264 21.324 91.1584 21.86 91.1584 22.46ZM90.0304 22.232C90.0304 21.816 89.9384 21.46 89.7544 21.164C89.5704 20.86 89.3184 20.632 88.9984 20.48C88.6864 20.32 88.3384 20.24 87.9544 20.24C87.4024 20.24 86.9304 20.416 86.5384 20.768C86.1544 21.12 85.9344 21.608 85.8784 22.232H90.0304ZM92.1918 22.688C92.1918 22.016 92.3278 21.428 92.5998 20.924C92.8718 20.412 93.2438 20.016 93.7158 19.736C94.1958 19.456 94.7318 19.316 95.3238 19.316C95.8358 19.316 96.3118 19.436 96.7518 19.676C97.1918 19.908 97.5278 20.216 97.7598 20.6V17.12H98.8638V26H97.7598V24.764C97.5438 25.156 97.2238 25.48 96.7998 25.736C96.3758 25.984 95.8798 26.108 95.3118 26.108C94.7278 26.108 94.1958 25.964 93.7158 25.676C93.2438 25.388 92.8718 24.984 92.5998 24.464C92.3278 23.944 92.1918 23.352 92.1918 22.688ZM97.7598 22.7C97.7598 22.204 97.6598 21.772 97.4598 21.404C97.2598 21.036 96.9878 20.756 96.6438 20.564C96.3078 20.364 95.9358 20.264 95.5278 20.264C95.1198 20.264 94.7478 20.36 94.4118 20.552C94.0758 20.744 93.8078 21.024 93.6078 21.392C93.4078 21.76 93.3078 22.192 93.3078 22.688C93.3078 23.192 93.4078 23.632 93.6078 24.008C93.8078 24.376 94.0758 24.66 94.4118 24.86C94.7478 25.052 95.1198 25.148 95.5278 25.148C95.9358 25.148 96.3078 25.052 96.6438 24.86C96.9878 24.66 97.2598 24.376 97.4598 24.008C97.6598 23.632 97.7598 23.196 97.7598 22.7ZM105.24 20.324V24.2C105.24 24.52 105.308 24.748 105.444 24.884C105.58 25.012 105.816 25.076 106.152 25.076H106.956V26H105.972C105.364 26 104.908 25.86 104.604 25.58C104.3 25.3 104.148 24.84 104.148 24.2V20.324H103.296V19.424H104.148V17.768H105.24V19.424H106.956V20.324H105.24ZM114.279 22.46C114.279 22.668 114.267 22.888 114.243 23.12H108.987C109.027 23.768 109.247 24.276 109.647 24.644C110.055 25.004 110.547 25.184 111.123 25.184C111.595 25.184 111.987 25.076 112.299 24.86C112.619 24.636 112.843 24.34 112.971 23.972H114.147C113.971 24.604 113.619 25.12 113.091 25.52C112.563 25.912 111.907 26.108 111.123 26.108C110.499 26.108 109.939 25.968 109.443 25.688C108.955 25.408 108.571 25.012 108.291 24.5C108.011 23.98 107.871 23.38 107.871 22.7C107.871 22.02 108.007 21.424 108.279 20.912C108.551 20.4 108.931 20.008 109.419 19.736C109.915 19.456 110.483 19.316 111.123 19.316C111.747 19.316 112.299 19.452 112.779 19.724C113.259 19.996 113.627 20.372 113.883 20.852C114.147 21.324 114.279 21.86 114.279 22.46ZM113.151 22.232C113.151 21.816 113.059 21.46 112.875 21.164C112.691 20.86 112.439 20.632 112.119 20.48C111.807 20.32 111.459 20.24 111.075 20.24C110.523 20.24 110.051 20.416 109.659 20.768C109.275 21.12 109.055 21.608 108.999 22.232H113.151ZM115.313 22.688C115.313 22.016 115.449 21.428 115.721 20.924C115.993 20.412 116.365 20.016 116.837 19.736C117.317 19.456 117.849 19.316 118.433 19.316C119.009 19.316 119.509 19.44 119.933 19.688C120.357 19.936 120.673 20.248 120.881 20.624V19.424H121.985V26H120.881V24.776C120.665 25.16 120.341 25.48 119.909 25.736C119.485 25.984 118.989 26.108 118.421 26.108C117.837 26.108 117.309 25.964 116.837 25.676C116.365 25.388 115.993 24.984 115.721 24.464C115.449 23.944 115.313 23.352 115.313 22.688ZM120.881 22.7C120.881 22.204 120.781 21.772 120.581 21.404C120.381 21.036 120.109 20.756 119.765 20.564C119.429 20.364 119.057 20.264 118.649 20.264C118.241 20.264 117.869 20.36 117.533 20.552C117.197 20.744 116.929 21.024 116.729 21.392C116.529 21.76 116.429 22.192 116.429 22.688C116.429 23.192 116.529 23.632 116.729 24.008C116.929 24.376 117.197 24.66 117.533 24.86C117.869 25.052 118.241 25.148 118.649 25.148C119.057 25.148 119.429 25.052 119.765 24.86C120.109 24.66 120.381 24.376 120.581 24.008C120.781 23.632 120.881 23.196 120.881 22.7ZM131.738 19.304C132.25 19.304 132.706 19.412 133.106 19.628C133.506 19.836 133.822 20.152 134.054 20.576C134.286 21 134.402 21.516 134.402 22.124V26H133.322V22.28C133.322 21.624 133.158 21.124 132.83 20.78C132.51 20.428 132.074 20.252 131.522 20.252C130.954 20.252 130.502 20.436 130.166 20.804C129.83 21.164 129.662 21.688 129.662 22.376V26H128.582V22.28C128.582 21.624 128.418 21.124 128.09 20.78C127.77 20.428 127.334 20.252 126.782 20.252C126.214 20.252 125.762 20.436 125.426 20.804C125.09 21.164 124.922 21.688 124.922 22.376V26H123.83V19.424H124.922V20.372C125.138 20.028 125.426 19.764 125.786 19.58C126.154 19.396 126.558 19.304 126.998 19.304C127.55 19.304 128.038 19.428 128.462 19.676C128.886 19.924 129.202 20.288 129.41 20.768C129.594 20.304 129.898 19.944 130.322 19.688C130.746 19.432 131.218 19.304 131.738 19.304ZM136.542 26.072C136.334 26.072 136.158 26 136.014 25.856C135.87 25.712 135.798 25.536 135.798 25.328C135.798 25.12 135.87 24.944 136.014 24.8C136.158 24.656 136.334 24.584 136.542 24.584C136.742 24.584 136.91 24.656 137.046 24.8C137.19 24.944 137.262 25.12 137.262 25.328C137.262 25.536 137.19 25.712 137.046 25.856C136.91 26 136.742 26.072 136.542 26.072Z" fill="#292929"/>
</svg>
